<?xml version="1.0" encoding="UTF-8" standalone="no"?>
<!-- Created with Inkscape (http://www.inkscape.org/) -->

<svg
   xmlns:dc="http://purl.org/dc/elements/1.1/"
   xmlns:cc="http://creativecommons.org/ns#"
   xmlns:rdf="http://www.w3.org/1999/02/22-rdf-syntax-ns#"
   xmlns:svg="http://www.w3.org/2000/svg"
   xmlns="http://www.w3.org/2000/svg"
   xmlns:sodipodi="http://sodipodi.sourceforge.net/DTD/sodipodi-0.dtd"
   xmlns:inkscape="http://www.inkscape.org/namespaces/inkscape"
   width="117.55798mm"
   height="24.823509mm"
   viewBox="0 0 416.54401 87.957316"
   id="svg2"
   version="1.1"
   inkscape:version="0.91 r13725"
   sodipodi:docname="drawing.svg">
  <sodipodi:namedview
     id="base"
     pagecolor="#ffffff"
     bordercolor="#666666"
     borderopacity="1.0"
     inkscape:pageopacity="0.0"
     inkscape:pageshadow="2"
     inkscape:zoom="2"
     inkscape:cx="303.56334"
     inkscape:cy="54.114177"
     inkscape:document-units="px"
     inkscape:current-layer="layer1"
     showgrid="false"
     inkscape:window-width="1440"
     inkscape:window-height="837"
     inkscape:window-x="-8"
     inkscape:window-y="-8"
     inkscape:window-maximized="1"
     fit-margin-top="0"
     fit-margin-left="0"
     fit-margin-right="0"
     fit-margin-bottom="0" />
  <defs
     id="defs4" />
  <metadata
     id="metadata7">
    <rdf:RDF>
      <cc:Work
         rdf:about="">
        <dc:format>image/svg+xml</dc:format>
        <dc:type
           rdf:resource="http://purl.org/dc/dcmitype/StillImage" />
        <dc:title></dc:title>
      </cc:Work>
    </rdf:RDF>
  </metadata>
  <g
     id="layer1"
     inkscape:groupmode="layer"
     inkscape:label="Camada 1"
     transform="translate(-177.71193,-56.10085)">
    <path
       style="fill:#000000"
       d=""
       id="path3382"
       inkscape:connector-curvature="0" />
    <path
       style="fill:#000000"
       d=""
       id="path3380"
       inkscape:connector-curvature="0" />
    <path
       style="fill:#000000"
       d=""
       id="path3378"
       inkscape:connector-curvature="0" />
    <g
       id="g4245"
       transform="matrix(0.35174515,0,0,0.35174515,357.88362,47.345686)">
      <path
         sodipodi:nodetypes="ssscsssscccsssscsss"
         inkscape:connector-curvature="0"
         id="path3394"
         d="m -410.72223,263.56541 c -1.1,-0.28001 -2.225,-0.84145 -2.5,-1.24765 -0.275,-0.40619 -18.275,-5.65979 -40,-11.67465 l -39.5,-10.93611 -3.19006,-35.45966 c -1.75453,-19.50282 -5.71855,-64.25967 -8.80893,-99.45967 -3.09038,-35.200001 -6.04236,-64.781391 -6.55994,-65.736431 -0.51759,-0.95504 -0.94107,-4.21754 -0.94107,-7.25 l 0,-5.51357 104.5,0 104.5,0 0,5.51357 c 0,3.03246 -0.42342,6.29496 -0.94094,7.25 -0.51752,0.95504 -3.474,30.53643 -6.56995,65.736431 -3.09596,35.2 -7.06003,79.94814 -8.80906,99.44031 l -3.18005,35.4403 -39.5,10.92152 c -21.725,6.00684 -39.725,11.26467 -40,11.68406 -0.70589,1.07654 -6.11555,1.89852 -8.5,1.29155 z"
         style="fill:#f1c547" />
      <path
         sodipodi:nodetypes="ssscsssscccsssscsssssssscccss"
         inkscape:connector-curvature="0"
         id="path3392"
         d="m -409.62441,264.49573 c -1.1,-0.28001 -2.225,-0.84145 -2.5,-1.24765 -0.275,-0.40619 -18.275,-5.65979 -40,-11.67465 l -39.5,-10.93611 -3.19006,-35.45966 c -1.75453,-19.50282 -5.71855,-64.25967 -8.80893,-99.45967 -3.09038,-35.199996 -6.04236,-64.781386 -6.55994,-65.736426 -0.51759,-0.95504 -0.94107,-4.21754 -0.94107,-7.25 l 0,-5.51357 104.5,0 104.5,0 0,5.51357 c 0,3.03246 -0.42342,6.29496 -0.94094,7.25 -0.51752,0.95504 -3.474,30.53643 -6.56995,65.736426 -3.09596,35.2 -7.06003,79.94814 -8.80906,99.44031 l -3.18005,35.4403 -39.5,10.92152 c -21.725,6.00684 -39.725,11.26467 -40,11.68406 -0.70589,1.07654 -6.11555,1.89852 -8.5,1.29155 z m 38.75628,-27.37244 c 17.73405,-5.00209 32.5872,-9.41807 33.00701,-9.8133 0.41981,-0.39522 2.32133,-18.0151 4.22559,-39.15529 9.84851,-109.333436 12.55128,-141.389656 12.0346,-142.736106 -0.49369,-1.28655 -5.87358,-1.39727 -41.29556,-0.84991 -22.40036,0.34614 -41.29042,0.63384 -41.97792,0.63933 -0.97757,0.008 -1.25,8.17203 -1.25,37.46029 -0.53342,39.248416 0,0 -0.24049,114.799686 0.22627,42.50426 0.45128,48.75 1.75628,48.75 0.82322,0 16.00644,-4.09262 33.74049,-9.0947 z"
         style="fill:#eab446" />
      <path
         sodipodi:nodetypes="cssssccccccccssscccccccsscsssssccccccsssscccssssscccssssssscc"
         inkscape:connector-curvature="0"
         id="path4222"
         d="m -417.58646,223.35146 c -18.42619,-3.03521 -33.52581,-10.94629 -45.92066,-24.05898 -21.52762,-22.7744 -27.49408,-55.70445 -15.32766,-84.5964 9.00445,-21.383166 28.37247,-38.600786 50.65257,-45.028726 4.65377,-1.34264 15.47092,-3.08557 19.24894,-3.10151 l 3.00213,-0.0127 0,78.964666 0,78.96466 -1.94255,0.0744 c -1.06841,0.041 -5.43915,-0.50152 -9.71277,-1.20548 z m 8.67877,-18.83046 -0.20217,-6.8407 -5.65107,-0.922 c -19.13113,-3.12133 -35.22536,-16.8864 -40.9883,-35.05646 -0.96134,-3.03102 -1.74788,-6.28921 -1.74788,-7.24043 l 0,-1.7295 22.60426,0 22.60426,0 0,-7.06383 0,-7.06383 -22.86989,0 -22.86989,0 0.86522,-4.0617 c 4.58025,-21.5017 21.05431,-37.154876 42.68551,-40.558526 l 5.72097,-0.90018 0,-6.90789 c 0,-7.979 0.7345,-7.47031 -8.45199,-5.85364 -14.55932,2.56221 -26.01092,8.69295 -36.48069,19.53037 -11.46309,11.865596 -17.5113,25.781606 -18.42234,42.387006 -1.52828,27.85571 15.3793,54.10501 41.63733,64.64269 5.01679,2.01329 15.11376,4.35566 19.09433,4.42964 l 2.67452,0.0497 -0.20218,-6.84072 z m 5.95347,-0.0768 0.20181,-6.85693 3.88511,-0.43337 c 15.68511,-1.74959 31.21766,-12.60423 38.88,-27.17058 2.57497,-4.89509 5.92762,-15.43643 5.37092,-16.88715 -0.35504,-0.92525 -3.4352,-1.07062 -22.68407,-1.07062 l -22.27324,0 0,-6.71064 0,-6.71064 22.60426,0 c 17.80328,0 22.60427,-0.19055 22.60427,-0.89718 0,-0.49344 -0.64947,-3.24083 -1.44325,-6.10531 -5.01539,-18.09861 -18.54197,-31.611666 -36.74651,-36.709766 -2.93861,-0.82295 -6.51467,-1.49626 -7.94681,-1.49626 l -2.60387,0 0,-6.71064 0,-6.71064 3.39887,0 c 4.38239,0 13.17766,2.29374 19.95004,5.20283 14.26738,6.12858 26.72414,18.451476 33.51964,33.159476 4.10422,8.88303 5.50862,15.73845 5.52673,26.97813 0.0129,7.96364 -0.28844,11.05856 -1.54714,15.89362 -3.9953,15.3471 -13.97606,29.81956 -26.36829,38.23496 -8.77001,5.9556 -20.83731,10.45167 -30.79655,11.47428 l -3.73373,0.38338 z"
         style="fill:#ffffff" />
    </g>
    <flowRoot
       xml:space="preserve"
       id="flowRoot4250"
       style="font-style:normal;font-weight:normal;font-size:40px;line-height:125%;font-family:sans-serif;letter-spacing:0px;word-spacing:0px;fill:#000000;fill-opacity:1;stroke:none;stroke-width:1px;stroke-linecap:butt;stroke-linejoin:miter;stroke-opacity:1"><flowRegion
         id="flowRegion4252"><rect
           id="rect4254"
           width="368.70569"
           height="170.71577"
           x="289.91379"
           y="77.56498" /></flowRegion><flowPara
         id="flowPara4256" /></flowRoot>    <text
       xml:space="preserve"
       style="font-style:normal;font-weight:normal;font-size:40.77349091px;line-height:125%;font-family:sans-serif;letter-spacing:0px;word-spacing:0px;fill:#000000;fill-opacity:1;stroke:none;stroke-width:1px;stroke-linecap:butt;stroke-linejoin:miter;stroke-opacity:1"
       x="257.44064"
       y="103.65314"
       id="text4258"
       sodipodi:linespacing="125%"
       transform="scale(1.0193373,0.98102953)"><tspan
         sodipodi:role="line"
         x="257.44064"
         y="103.65314"
         id="tspan4262"
         style="font-style:normal;font-variant:normal;font-weight:normal;font-stretch:normal;font-size:62.5px;font-family:'Open Sans';-inkscape-font-specification:'Open Sans';fill:#4d4d4d">Erik Paixão</tspan></text>
    <text
       xml:space="preserve"
       style="font-style:normal;font-weight:normal;font-size:40px;line-height:125%;font-family:sans-serif;letter-spacing:0px;word-spacing:0px;fill:#000000;fill-opacity:1;stroke:none;stroke-width:1px;stroke-linecap:butt;stroke-linejoin:miter;stroke-opacity:1"
       x="266.68027"
       y="138.05231"
       id="text4266"
       sodipodi:linespacing="125%"><tspan
         sodipodi:role="line"
         id="tspan4268"
         x="266.68027"
         y="138.05231"
         style="font-style:normal;font-variant:normal;font-weight:300;font-stretch:normal;font-size:25px;font-family:'Open Sans';-inkscape-font-specification:'Open Sans Light';fill:#666666">Criação de sites responsivos</tspan></text>
  </g>
</svg>
